<svg width="25" height="40" viewBox="0 0 25 40" fill="none" xmlns="http://www.w3.org/2000/svg">
<path d="M12.0527 30.041V38.8789H10.9688V34.0547H9.26953V33.166H10.9688V30.041H12.0527ZM7.89258 32.3848C7.89258 33.9082 8.71289 35.5293 10.1387 36.1445L9.49414 37.0137C8.46875 36.5254 7.73633 35.5439 7.35547 34.377C6.95996 35.6221 6.21289 36.6719 5.1875 37.1895L4.5332 36.3398C5.94922 35.6758 6.7793 33.9961 6.78906 32.3848V31.7988H4.89453V30.9102H9.78711V31.7988H7.89258V32.3848ZM16.457 31.6328C16.457 32.7168 17.1602 33.7324 18.5371 34.1523L18.0195 35.002C17.0283 34.6943 16.3252 34.0645 15.9395 33.2637C15.5488 34.1914 14.8018 34.9287 13.7422 35.2852L13.1953 34.4258C14.6211 33.957 15.3633 32.8145 15.3633 31.6426V31.5352H13.498V30.6562H18.293V31.5352H16.457V31.6328ZM20.2559 30.041V32.1602H21.4863V33.0488H20.2559V35.3047H19.1719V30.041H20.2559ZM17.3848 35.5C19.2109 35.5 20.334 36.1152 20.3438 37.1699C20.334 38.2344 19.2109 38.8594 17.3848 38.8594C15.5391 38.8594 14.3965 38.2344 14.3965 37.1699C14.3965 36.1152 15.5391 35.5 17.3848 35.5ZM17.3848 36.3496C16.1738 36.3496 15.4805 36.6328 15.4805 37.1699C15.4805 37.7168 16.1738 38.0098 17.3848 38.0098C18.5957 38.0098 19.2695 37.7168 19.2695 37.1699C19.2695 36.6328 18.5957 36.3496 17.3848 36.3496Z" fill="#A1A1A1"/>
<path fill-rule="evenodd" clip-rule="evenodd" d="M12.5 25C19.4035 25 25 19.4035 25 12.5C25 5.59644 19.4035 0 12.5 0C5.59644 0 0 5.59644 0 12.5C0 19.4035 5.59644 25 12.5 25ZM17.5 15.0569V11.936C17.5 9.25556 17.5 7.91537 16.7677 7.08269C16.0355 6.25 14.857 6.25 12.5 6.25C10.143 6.25 8.96446 6.25 8.23224 7.08269C7.5 7.91537 7.5 9.25556 7.5 11.936V15.0569C7.5 16.9921 7.5 17.9599 7.90784 18.3827C8.10234 18.5844 8.34786 18.711 8.6094 18.7448C9.15779 18.8153 9.79819 18.1781 11.079 16.9036C11.6451 16.3403 11.9282 16.0586 12.2557 15.9844C12.417 15.9479 12.583 15.9479 12.7443 15.9844C13.0718 16.0586 13.3549 16.3403 13.921 16.9036C15.2019 18.1781 15.8422 18.8153 16.3906 18.7448C16.6521 18.711 16.8976 18.5844 17.0921 18.3827C17.5 17.9599 17.5 16.9921 17.5 15.0569Z" fill="#A1A1A1"/>
</svg>
